<svg version="1.0" xmlns="http://www.w3.org/2000/svg" width="1365.333" height="1365.333" viewBox="0 0 1024 1024"><g fill="rgb(79 70 229)"><path d="M576.6 190c-.2.8-.9 3-1.5 4.8-1.4 4.5-7.2 12.3-11.6 15.6-1.9 1.5-6.1 3.9-9.3 5.4-5.7 2.6-5.7 2.6-32.7 2.7-23.7.1-28.2.4-36.7 2.3-32.9 7.3-59.2 23.8-80.9 51-6.1 7.6-14.5 20.9-13.7 21.7.3.3 47 .4 103.8.3l103.3-.3-4.8-7c-2.7-3.9-6.5-9-8.5-11.4l-3.8-4.4 2.9-4.6c11.3-18.2 11.3-44.8-.1-67-5.3-10.2-5.8-11-6.4-9.1z"/><path d="M655.5 260.1c-7.9 1.2-11.7 2.5-19.9 6.7-15.5 8.1-28.6 27.6-28.6 42.8v4.4H378.9l-1.4 3.4c-2.6 6.1-8.3 26-10.4 36.1-5.9 28.8-7.2 61.4-3.2 83.9 5.8 32.7 18.1 52.9 45.6 74.7 15.5 12.3 79.2 61.3 82.7 63.7l3.7 2.4 13.3-10.1c44.1-33.5 78.1-60.6 86.5-69 19-19 28.4-42.4 31.4-77.4 1.9-22.9-1.3-52.5-7.9-75-1.6-5.3-2.8-9.7-2.6-9.7.2 0 2.5 1.4 5.1 3 11 7 23.4 9.4 34.2 6.6 13-3.3 21.5-10.2 24.7-19.9 1.9-5.6 1.4-13.9-1.1-18.8L678 305l-4.5 3.5c-13.7 10.4-33 14.9-47.8 11-4.8-1.2-15.7-6-15.7-6.8 0-.1 5.1-.2 11.3-.3 26.3-.2 44-9.9 56.1-30.5 2.7-4.6 6.4-10.3 8.3-12.6 3.1-3.8 3.2-4.3 1.6-5.1-7-3.7-21.9-5.7-31.8-4.1zm-195.8 115c18.1 5.6 24.6 7.1 31.5 7.6 11 .7 16-.3 39.5-7.8 16.4-5.3 20.1-6.1 28.8-6.6 8.6-.4 10.8-.2 15.6 1.6 12.8 4.8 21.8 18 22.7 33 1 18.2-7.5 33.7-22.5 41.2-4.3 2.1-6.2 2.4-16.8 2.4h-12l-14-5.8c-26.1-10.9-27-11.2-37.5-11.2-9.5 0-9.6.1-27 7.2-22.4 9.1-26.7 10.3-36 10.3-13.8 0-24-5-31.6-15.3-10.9-14.8-11.1-35.1-.4-50 6.7-9.3 15.7-13.6 28.7-13.7 7.3 0 10.4.7 31 7.1z"/><path d="M422.1 395.2c-3.2 9.9-2.1 17.5 3.2 23.1 6.3 6.8 17.1 6.5 24.4-.4 4.4-4.3 10.5-13.1 9.5-14-1-.9-33.1-11.9-34.7-11.9-.7 0-1.8 1.5-2.4 3.2zM549.5 397.1c-7.7 2.8-15 5.3-16.2 5.6-2.9.7-2.9 1.4.2 6.2 6.6 10.5 11.8 14.1 20.3 14.1 5.7 0 10.4-2.7 13.9-7.9 4-6 2.4-22.3-2.2-22.8-1.1-.1-8.3 2-16 4.8zM229.5 420.2c4 40.8 23.3 68 82.5 116.3 37.2 30.3 83.7 68.9 92 76.3l4.5 4 5.7-5 5.7-4.9 20.8 17.6 20.8 17.7.6-5.6c1.2-10.8 8.9-21.7 17.6-24.8 1.8-.7 3.2-1.5 3.1-1.9-.3-.6-9.9-8.3-61.8-48.9-6.9-5.4-23.7-18.6-37.5-29.4-62-48.6-152.3-117.6-154-117.6-.3 0-.3 2.8 0 6.2zM736 433.3c-36.1 27.2-89.4 68.5-129 99.7-4.7 3.7-15.5 12.3-24.2 19.1-8.6 6.8-18.6 14.6-22.2 17.4-3.6 2.7-6.5 5.4-6.6 6 0 .5 3.9 6.2 8.6 12.5 4.7 6.3 10.3 14 12.4 17 2.1 3 5 6.8 6.3 8.5l2.5 3 4.8-4.1c2.7-2.2 17.5-14.3 32.9-26.9 78.2-63.9 91.7-75.5 104.6-89.9 21.6-24.1 33.2-48.1 35.4-73.4.4-4.5.5-8.2.4-8.2-.2 0-11.9 8.7-25.9 19.3zM247.2 545.1c-6.1 1.2-21.2 5.9-21.2 6.5 0 1.6 7.7 10.9 12.7 15.3 6.2 5.6 14.5 10 24.8 13.1 3.9 1.1 10.7 3.2 15.1 4.6 7.9 2.5 15.5 6.7 22 12.4l3.2 2.8-7.2.6c-12.4 1.2-33.6 4.5-45.4 7.2-26.2 5.9-45.4 15.1-49.5 23.7-5.9 12.5 6.3 53.6 24.1 81.2 4.9 7.6 15.9 21.5 17 21.5.4 0 2.1-2.3 3.7-5.1 3.7-6.2 10.4-12.4 15.3-14 2.1-.7 5.4-2.9 7.4-5 5-5.1 12.8-9 19.7-9.6 3.1-.3 8-1.7 11-3.1 10.8-5.1 30.8-4.1 43.5 2.3 5.9 2.9 7.2 3.3 12.5 2.8 7.5-.7 12.1.9 16.4 5.6 3.2 3.6 5.6 10.9 4.2 13.1-.3.5 1.1 3.1 3.1 5.7 4.7 6.1 7.9 12.9 10.1 21.8 1 3.9 1.8 7.2 2 7.4.5.8 8.2-4.7 15.8-11.2 15.4-13.2 29.3-31 37.5-48.2 4.6-9.7 10-25.2 10-28.8 0-3.3-17.5-18-19.9-16.8-1.8.9-16.6 4.5-25.1 6-48.2 8.9-130.6 7.4-164.5-3-17.8-5.4-21.9-11.2-12.5-17.7 6.2-4.2 19.7-7.3 49-11.4 11.9-1.6 89-1.7 96.3-.1 2.6.6 4.7.9 4.7.6 0-.6-5.4-5.2-38.9-33.2-31.8-26.5-45.2-36.6-54.8-41.5-11.1-5.6-29.6-8-42.1-5.5zM757.4 553.1c-4.1 4.6-20.1 14-38.1 22.4-10.3 4.8-19.3 9.2-20 9.7-.9.7 1.3 3.4 7.9 9.6 10.4 9.9 17.4 19.9 21.7 31 4.4 11.7 5.5 18.5 4.9 33.2l-.6 12.9 3.7 2.2 3.6 2.1 5.4-5.8c11.7-12.8 20.5-29.1 24.8-46.2 2.7-10.3 2.4-39-.4-49.2-3.1-11.3-8.3-24-9.7-24-.7 0-2.1 1-3.2 2.1zM670.1 580c-15.4 8.2-39.4 25.2-46.8 33.3-2.3 2.5-5.4 6.9-7 9.9-2.4 4.6-2.7 6.4-2.8 14.3 0 4.9.4 10.3.8 11.9l.8 2.9-3.6-3.2c-6.8-5.9-21.7-12.1-33-13.5l-5-.6-8.5 7c-4.7 3.9-12.1 10.1-16.5 13.8l-8 6.7 85.4.3c47 .1 85.7-.1 86-.4 1.4-1.4.4-18.1-1.3-23.4-2.3-6.9-7.5-16.4-11.5-21l-3.1-3.5-14.6 15c-8 8.2-17.3 18.5-20.7 22.7-3.3 4.3-6.1 7.8-6.2 7.8-.4 0 12.6-41.1 20-63.3 4-12.2 6.7-21.7 6.1-21.7-.6 0-5.3 2.3-10.5 5zM532.5 591.1c-4.9 3.8-12.5 9.7-16.8 13l-7.9 6.1 4 2c8.5 4.1 15.7 14.7 16.9 24.8.3 2.8.8 5 1.1 5 .2 0 4.8-3.7 10.1-8.3 5.3-4.6 10.8-9.2 12.2-10.3 1.4-1 4.7-3.8 7.3-6.1l4.8-4.2-1.8-2.4c-11.2-14.5-20.7-26.7-20.8-26.6 0 0-4.1 3.2-9.1 7z"/><path d="M773.6 666.2c-.7 1.3-1.6 4.5-2 7.3-1.1 8.9-6.8 18.8-16.7 28.7-4.9 4.8-9.2 8.8-9.6 8.7-.5 0-2.2-1.9-3.8-4.2-4-5.4-11.6-11.2-18.5-13.9-4.4-1.7-7.6-2.2-15.5-2.2-11.9 0-17.6 1.9-28.1 9.3-7.9 5.5-22 19.3-23 22.4-.5 1.6.8 3.3 6.6 8.6 6.4 5.9 7.2 7 7.3 10.4.1 4.4-1.6 6.4-6 7.3-3 .6-3.8.1-10.7-6.6l-7.5-7.2-4.8 7.3c-2.6 4.1-5.7 9.4-6.8 11.8l-1.9 4.4 3.9 3.1c8.5 6.7 9.6 8.2 9.3 12.8-.2 3.3-.8 4.5-2.9 5.7-3.6 2-7.3.8-12.9-4.5-2.6-2.5-5-4.1-5.3-3.7-1.2 2.1-4.7 14.4-5.6 19.7-1.6 8.6-1.3 23.4.4 29.3 2.3 7.8 5.3 11.4 12 14.8 5.8 2.9 6.5 3 19 2.9 10.8-.1 14.7-.6 23-2.8 41.3-11.2 84.6-38.7 94.7-60.1 7.5-16.2 3.9-35-9.4-49.2l-3-3.1 9.3-9.4c9.8-9.7 14.3-16.4 18.6-26.9 3.2-8.1 3.7-17.7.9-20.8-2.7-3-9-2.9-11 .1zM461.9 687.9c-4.1 4.1-3.8 7.5.8 11.4 8.9 7.6 15.3 17.2 15.3 23 0 2.1-.4 2.2-8 2.3-7 0-8.7.5-15.4 3.7-13.5 6.7-23.3 20.3-25.7 35.8-2.2 14.5.5 30 8.1 45.4 12.2 24.9 27.9 34.2 45.5 27l6-2.5 4.5 2.3c6.5 3.2 17.7 3.1 24-.2 6.9-3.6 10.7-7 16.1-14.2 10.2-13.8 15.9-30.8 15.9-47.7 0-21.3-9.7-37.5-27.9-46.5-6.2-3-7.2-3.2-17.2-3.2h-10.6l-1.2-6c-2.1-11.6-11.4-25.7-20.5-31-5.4-3.2-6.1-3.1-9.7.4zm18.1 48.8c1.4.8 3.7 2.9 5.1 4.5l2.6 3.1 2.2-3.6c7.4-12.1 27.9-5.8 33.6 10.3.8 2.2 1.3 4 1.1 4-.2 0-2.8-1.1-5.7-2.5-2.9-1.3-7.7-2.7-10.6-3.1-7.6-.9-9.5.7-15.3 12.7l-4.7 10-5.6-9.8c-3.1-5.5-6.5-10.7-7.7-11.8-2.1-1.9-2.4-1.9-9.9-.3-4.4.9-9.7 2.8-12 4.3l-4.3 2.6.7-2.3c2.4-7.9 7.3-14.6 12.6-17.4 6.6-3.4 12.9-3.6 17.9-.7zM523.2 692.1c11.3 20.7 34.6 41 57.3 49.9 11.4 4.4 32.6 9.1 33.2 7.3 1.2-3.5 14.1-24.7 19-31.2 6.7-8.8 21.8-24.3 28.2-28.9l4.4-3.2H519.9l3.3 6.1zM298.2 715c-6.8 1.8-16 6.1-20.7 9.6-1.8 1.4-1.1 2.3 16 19.6 9.9 10 18.1 18.4 18.3 18.7.1.3 8.7-7.9 18.9-18.1 21.3-21.3 20.7-19.6 9.4-25.7-11.6-6.2-27.9-7.8-41.9-4.1zM339.8 752.7l-18.7 18.8 18.7 19.2c10.4 10.6 19.4 19.3 20 19.3 1.9 0 7.7-9.7 10.5-17.7 5.3-14.5 4.3-32.2-2.4-45.7-3.2-6.3-7.5-12.6-8.7-12.6-.4 0-9.1 8.4-19.4 18.7zM261.8 740.8c-12.5 19.5-12.7 44.5-.5 63.5l4.3 6.7 19.3-19.7 19.3-19.8-18.9-18.2c-10.3-10-19-18.3-19.3-18.3-.3 0-2.2 2.6-4.2 5.8zM294.2 799.3c-10 10.1-18.2 19-18.2 19.8 0 2 9.4 7.6 17.2 10.2 5.1 1.7 8.8 2.1 19.3 2.1 11.8.1 13.7-.2 20.5-2.7 4.1-1.5 9.9-4.2 12.8-6l5.3-3.3-19.1-19c-10.5-10.4-19.2-19-19.4-19.1-.1-.2-8.4 8-18.4 18z"/></g></svg>