<?xml version="1.0" standalone="no"?>
<!DOCTYPE svg PUBLIC "-//W3C//DTD SVG 20010904//EN"
 "http://www.w3.org/TR/2001/REC-SVG-20010904/DTD/svg10.dtd">
<svg version="1.0" xmlns="http://www.w3.org/2000/svg"
 width="1024.000000pt" height="1024.000000pt" viewBox="0 0 1024.000000 1024.000000"
 preserveAspectRatio="xMidYMid meet">

<g transform="translate(0.000000,1024.000000) scale(0.100000,-0.100000)"
fill="rgb(79 70 229)" stroke="none">
<path d="M5766 8340 c-2 -8 -9 -30 -15 -48 -14 -45 -72 -123 -116 -156 -19
-15 -61 -39 -93 -54 -57 -26 -57 -26 -327 -27 -237 -1 -282 -4 -367 -23 -329
-73 -592 -238 -809 -510 -61 -76 -145 -209 -137 -217 3 -3 470 -4 1038 -3
l1033 3 -48 70 c-27 39 -65 90 -85 114 l-38 44 29 46 c113 182 113 448 -1 670
-53 102 -58 110 -64 91z"/>
<path d="M6555 7639 c-79 -12 -117 -25 -199 -67 -155 -81 -286 -276 -286 -428
l0 -44 -1141 0 -1140 0 -14 -34 c-26 -61 -83 -260 -104 -361 -59 -288 -72
-614 -32 -839 58 -327 181 -529 456 -747 155 -123 792 -613 827 -637 l37 -24
133 101 c441 335 781 606 865 690 190 190 284 424 314 774 19 229 -13 525 -79
750 -16 53 -28 97 -26 97 2 0 25 -14 51 -30 110 -70 234 -94 342 -66 130 33
215 102 247 199 19 56 14 139 -11 188 l-15 29 -45 -35 c-137 -104 -330 -149
-478 -110 -48 12 -157 60 -157 68 0 1 51 2 113 3 263 2 440 99 561 305 27 46
64 103 83 126 31 38 32 43 16 51 -70 37 -219 57 -318 41z m-1958 -1150 c181
-56 246 -71 315 -76 110 -7 160 3 395 78 164 53 201 61 288 66 86 4 108 2 156
-16 128 -48 218 -180 227 -330 10 -182 -75 -337 -225 -412 -43 -21 -62 -24
-168 -24 l-120 0 -140 58 c-261 109 -270 112 -375 112 -95 0 -96 -1 -270 -72
-224 -91 -267 -103 -360 -103 -138 0 -240 50 -316 153 -109 148 -111 351 -4
500 67 93 157 136 287 137 73 0 104 -7 310 -71z"/>
<path d="M4221 6288 c-32 -99 -21 -175 32 -231 63 -68 171 -65 244 4 44 43
105 131 95 140 -10 9 -331 119 -347 119 -7 0 -18 -15 -24 -32z"/>
<path d="M5495 6269 c-77 -28 -150 -53 -162 -56 -29 -7 -29 -14 2 -62 66 -105
118 -141 203 -141 57 0 104 27 139 79 40 60 24 223 -22 228 -11 1 -83 -20
-160 -48z"/>
<path d="M2295 6038 c40 -408 233 -680 825 -1163 372 -303 837 -689 920 -763
l45 -40 57 50 57 49 208 -176 208 -177 6 56 c12 108 89 217 176 248 18 7 32
15 31 19 -3 6 -99 83 -618 489 -69 54 -237 186 -375 294 -620 486 -1523 1176
-1540 1176 -3 0 -3 -28 0 -62z"/>
<path d="M7360 5907 c-361 -272 -894 -685 -1290 -997 -47 -37 -155 -123 -242
-191 -86 -68 -186 -146 -222 -174 -36 -27 -65 -54 -66 -60 0 -5 39 -62 86
-125 47 -63 103 -140 124 -170 21 -30 50 -68 63 -85 l25 -30 48 41 c27 22 175
143 329 269 782 639 917 755 1046 899 216 241 332 481 354 734 4 45 5 82 4 82
-2 0 -119 -87 -259 -193z"/>
<path d="M2472 4789 c-61 -12 -212 -59 -212 -65 0 -16 77 -109 127 -153 62
-56 145 -100 248 -131 39 -11 107 -32 151 -46 79 -25 155 -67 220 -124 l32
-28 -72 -6 c-124 -12 -336 -45 -454 -72 -262 -59 -454 -151 -495 -237 -59
-125 63 -536 241 -812 49 -76 159 -215 170 -215 4 0 21 23 37 51 37 62 104
124 153 140 21 7 54 29 74 50 50 51 128 90 197 96 31 3 80 17 110 31 108 51
308 41 435 -23 59 -29 72 -33 125 -28 75 7 121 -9 164 -56 32 -36 56 -109 42
-131 -3 -5 11 -31 31 -57 47 -61 79 -129 101 -218 10 -39 18 -72 20 -74 5 -8
82 47 158 112 154 132 293 310 375 482 46 97 100 252 100 288 0 33 -175 180
-199 168 -18 -9 -166 -45 -251 -60 -482 -89 -1306 -74 -1645 30 -178 54 -219
112 -125 177 62 42 197 73 490 114 119 16 890 17 963 1 26 -6 47 -9 47 -6 0 6
-54 52 -389 332 -318 265 -452 366 -548 415 -111 56 -296 80 -421 55z"/>
<path d="M7574 4709 c-41 -46 -201 -140 -381 -224 -103 -48 -193 -92 -200 -97
-9 -7 13 -34 79 -96 104 -99 174 -199 217 -310 44 -117 55 -185 49 -332 l-6
-129 37 -22 36 -21 54 58 c117 128 205 291 248 462 27 103 24 390 -4 492 -31
113 -83 240 -97 240 -7 0 -21 -10 -32 -21z"/>
<path d="M6701 4440 c-154 -82 -394 -252 -468 -333 -23 -25 -54 -69 -70 -99
-24 -46 -27 -64 -28 -143 0 -49 4 -103 8 -119 l8 -29 -36 32 c-68 59 -217 121
-330 135 l-50 6 -85 -70 c-47 -39 -121 -101 -165 -138 l-80 -67 854 -3 c470
-1 857 1 860 4 14 14 4 181 -13 234 -23 69 -75 164 -115 210 l-31 35 -146
-150 c-80 -82 -173 -185 -207 -227 -33 -43 -61 -78 -62 -78 -4 0 126 411 200
633 40 122 67 217 61 217 -6 0 -53 -23 -105 -50z"/>
<path d="M5325 4329 c-49 -38 -125 -97 -168 -130 l-79 -61 40 -20 c85 -41 157
-147 169 -248 3 -28 8 -50 11 -50 2 0 48 37 101 83 53 46 108 92 122 103 14
10 47 38 73 61 l48 42 -18 24 c-112 145 -207 267 -208 266 0 0 -41 -32 -91
-70z"/>
<path d="M7736 3578 c-7 -13 -16 -45 -20 -73 -11 -89 -68 -188 -167 -287 -49
-48 -92 -88 -96 -87 -5 0 -22 19 -38 42 -40 54 -116 112 -185 139 -44 17 -76
22 -155 22 -119 0 -176 -19 -281 -93 -79 -55 -220 -193 -230 -224 -5 -16 8
-33 66 -86 64 -59 72 -70 73 -104 1 -44 -16 -64 -60 -73 -30 -6 -38 -1 -107
66 l-75 72 -48 -73 c-26 -41 -57 -94 -68 -118 l-19 -44 39 -31 c85 -67 96 -82
93 -128 -2 -33 -8 -45 -29 -57 -36 -20 -73 -8 -129 45 -26 25 -50 41 -53 37
-12 -21 -47 -144 -56 -197 -16 -86 -13 -234 4 -293 23 -78 53 -114 120 -148
58 -29 65 -30 190 -29 108 1 147 6 230 28 413 112 846 387 947 601 75 162 39
350 -94 492 l-30 31 93 94 c98 97 143 164 186 269 32 81 37 177 9 208 -27 30
-90 29 -110 -1z"/>
<path d="M4619 3361 c-41 -41 -38 -75 8 -114 89 -76 153 -172 153 -230 0 -21
-4 -22 -80 -23 -70 0 -87 -5 -154 -37 -135 -67 -233 -203 -257 -358 -22 -145
5 -300 81 -454 122 -249 279 -342 455 -270 l60 25 45 -23 c65 -32 177 -31 240
2 69 36 107 70 161 142 102 138 159 308 159 477 0 213 -97 375 -279 465 -62
30 -72 32 -172 32 l-106 0 -12 60 c-21 116 -114 257 -205 310 -54 32 -61 31
-97 -4z m181 -488 c14 -8 37 -29 51 -45 l26 -31 22 36 c74 121 279 58 336
-103 8 -22 13 -40 11 -40 -2 0 -28 11 -57 25 -29 13 -77 27 -106 31 -76 9 -95
-7 -153 -127 l-47 -100 -56 98 c-31 55 -65 107 -77 118 -21 19 -24 19 -99 3
-44 -9 -97 -28 -120 -43 l-43 -26 7 23 c24 79 73 146 126 174 66 34 129 36
179 7z"/>
<path d="M5232 3319 c113 -207 346 -410 573 -499 114 -44 326 -91 332 -73 12
35 141 247 190 312 67 88 218 243 282 289 l44 32 -727 0 -727 0 33 -61z"/>
<path d="M2982 3090 c-68 -18 -160 -61 -207 -96 -18 -14 -11 -23 160 -196 99
-100 181 -184 183 -187 1 -3 87 79 189 181 213 213 207 196 94 257 -116 62
-279 78 -419 41z"/>
<path d="M3398 2713 l-187 -188 187 -192 c104 -106 194 -193 200 -193 19 0 77
97 105 177 53 145 43 322 -24 457 -32 63 -75 126 -87 126 -4 0 -91 -84 -194
-187z"/>
<path d="M2618 2832 c-125 -195 -127 -445 -5 -635 l43 -67 193 197 193 198
-189 182 c-103 100 -190 183 -193 183 -3 0 -22 -26 -42 -58z"/>
<path d="M2942 2247 c-100 -101 -182 -190 -182 -198 0 -20 94 -76 172 -102 51
-17 88 -21 193 -21 118 -1 137 2 205 27 41 15 99 42 128 60 l53 33 -191 190
c-105 104 -192 190 -194 191 -1 2 -84 -80 -184 -180z"/>
</g>
</svg>
